<mxfile host="app.diagrams.net" modified="2023-11-11T16:02:27.917Z" agent="Mozilla/5.0 (Windows NT 10.0; Win64; x64) AppleWebKit/537.36 (KHTML, like Gecko) Chrome/119.0.0.0 Safari/537.36" etag="aRAS_ldkmUhNyj4Rdb4I" version="22.1.0" type="device">
  <diagram name="Seite-1" id="9qtiHsYRXhi_rIvN6QHg">
    <mxGraphModel dx="1430" dy="757" grid="1" gridSize="10" guides="1" tooltips="1" connect="1" arrows="1" fold="1" page="1" pageScale="1" pageWidth="1169" pageHeight="827" math="0" shadow="0">
      <root>
        <mxCell id="0" />
        <mxCell id="1" parent="0" />
        <mxCell id="DucRvNVN7_RUR9OL1qth-1" value="Trip Management System" style="rounded=0;whiteSpace=wrap;html=1;fillColor=#dae8fc;strokeColor=#6c8ebf;" vertex="1" parent="1">
          <mxGeometry x="900" y="374" width="120" height="60" as="geometry" />
        </mxCell>
        <mxCell id="DucRvNVN7_RUR9OL1qth-29" style="edgeStyle=orthogonalEdgeStyle;rounded=0;orthogonalLoop=1;jettySize=auto;html=1;entryX=0;entryY=0.5;entryDx=0;entryDy=0;dashed=1;" edge="1" parent="1" source="DucRvNVN7_RUR9OL1qth-2" target="DucRvNVN7_RUR9OL1qth-1">
          <mxGeometry relative="1" as="geometry" />
        </mxCell>
        <mxCell id="DucRvNVN7_RUR9OL1qth-34" style="edgeStyle=orthogonalEdgeStyle;rounded=0;orthogonalLoop=1;jettySize=auto;html=1;entryX=1;entryY=0.5;entryDx=0;entryDy=0;dashed=1;" edge="1" parent="1" source="DucRvNVN7_RUR9OL1qth-2" target="DucRvNVN7_RUR9OL1qth-33">
          <mxGeometry relative="1" as="geometry" />
        </mxCell>
        <mxCell id="DucRvNVN7_RUR9OL1qth-2" value="Payment System" style="rounded=0;whiteSpace=wrap;html=1;fillColor=#dae8fc;strokeColor=#6c8ebf;" vertex="1" parent="1">
          <mxGeometry x="380" y="374" width="120" height="60" as="geometry" />
        </mxCell>
        <mxCell id="DucRvNVN7_RUR9OL1qth-3" value="User (Driver)" style="shape=umlActor;verticalLabelPosition=bottom;verticalAlign=top;html=1;" vertex="1" parent="1">
          <mxGeometry x="680" y="514" width="30" height="60" as="geometry" />
        </mxCell>
        <mxCell id="DucRvNVN7_RUR9OL1qth-4" value="User" style="shape=umlActor;verticalLabelPosition=bottom;verticalAlign=top;html=1;" vertex="1" parent="1">
          <mxGeometry x="680" y="254" width="30" height="60" as="geometry" />
        </mxCell>
        <mxCell id="DucRvNVN7_RUR9OL1qth-5" value="" style="endArrow=classic;html=1;rounded=0;entryX=0;entryY=0.75;entryDx=0;entryDy=0;dashed=1;" edge="1" parent="1" target="DucRvNVN7_RUR9OL1qth-1">
          <mxGeometry width="50" height="50" relative="1" as="geometry">
            <mxPoint x="720" y="544" as="sourcePoint" />
            <mxPoint x="910" y="424" as="targetPoint" />
          </mxGeometry>
        </mxCell>
        <mxCell id="DucRvNVN7_RUR9OL1qth-10" value="Manages trips" style="text;html=1;strokeColor=none;fillColor=default;align=center;verticalAlign=middle;whiteSpace=wrap;rounded=0;" vertex="1" parent="1">
          <mxGeometry x="770" y="464" width="90" height="20" as="geometry" />
        </mxCell>
        <mxCell id="DucRvNVN7_RUR9OL1qth-13" value="" style="endArrow=classic;html=1;rounded=0;entryX=-0.017;entryY=0.326;entryDx=0;entryDy=0;dashed=1;entryPerimeter=0;" edge="1" parent="1" target="DucRvNVN7_RUR9OL1qth-1">
          <mxGeometry width="50" height="50" relative="1" as="geometry">
            <mxPoint x="720" y="294" as="sourcePoint" />
            <mxPoint x="890" y="389" as="targetPoint" />
          </mxGeometry>
        </mxCell>
        <mxCell id="DucRvNVN7_RUR9OL1qth-14" value="Registers / Requests and attends trips" style="text;html=1;strokeColor=none;fillColor=default;align=center;verticalAlign=middle;whiteSpace=wrap;rounded=0;" vertex="1" parent="1">
          <mxGeometry x="730" y="334" width="150" height="30" as="geometry" />
        </mxCell>
        <mxCell id="DucRvNVN7_RUR9OL1qth-15" value="" style="endArrow=none;html=1;rounded=0;entryX=0.25;entryY=1;entryDx=0;entryDy=0;dashed=1;startArrow=classic;startFill=1;endFill=0;" edge="1" parent="1" target="DucRvNVN7_RUR9OL1qth-1">
          <mxGeometry width="50" height="50" relative="1" as="geometry">
            <mxPoint x="730" y="554" as="sourcePoint" />
            <mxPoint x="910" y="429" as="targetPoint" />
            <Array as="points">
              <mxPoint x="910" y="554" />
            </Array>
          </mxGeometry>
        </mxCell>
        <mxCell id="DucRvNVN7_RUR9OL1qth-16" value="Notifies about passenger status changes" style="text;html=1;strokeColor=none;fillColor=default;align=center;verticalAlign=middle;whiteSpace=wrap;rounded=0;" vertex="1" parent="1">
          <mxGeometry x="840" y="494" width="150" height="40" as="geometry" />
        </mxCell>
        <mxCell id="DucRvNVN7_RUR9OL1qth-18" value="" style="endArrow=none;html=1;rounded=0;entryX=0.25;entryY=0;entryDx=0;entryDy=0;dashed=1;endFill=0;startArrow=classic;startFill=1;" edge="1" parent="1" target="DucRvNVN7_RUR9OL1qth-1">
          <mxGeometry width="50" height="50" relative="1" as="geometry">
            <mxPoint x="720" y="274" as="sourcePoint" />
            <mxPoint x="908" y="404" as="targetPoint" />
            <Array as="points">
              <mxPoint x="910" y="274" />
            </Array>
          </mxGeometry>
        </mxCell>
        <mxCell id="DucRvNVN7_RUR9OL1qth-19" value="Notifies about cancellations and changes" style="text;html=1;strokeColor=none;fillColor=default;align=center;verticalAlign=middle;whiteSpace=wrap;rounded=0;" vertex="1" parent="1">
          <mxGeometry x="840" y="284" width="150" height="30" as="geometry" />
        </mxCell>
        <mxCell id="DucRvNVN7_RUR9OL1qth-21" value="" style="endArrow=classic;html=1;rounded=0;entryX=1;entryY=0.25;entryDx=0;entryDy=0;dashed=1;" edge="1" parent="1" target="DucRvNVN7_RUR9OL1qth-2">
          <mxGeometry width="50" height="50" relative="1" as="geometry">
            <mxPoint x="670" y="294" as="sourcePoint" />
            <mxPoint x="848" y="394" as="targetPoint" />
          </mxGeometry>
        </mxCell>
        <mxCell id="DucRvNVN7_RUR9OL1qth-22" value="Pays for trip" style="text;html=1;strokeColor=none;fillColor=default;align=center;verticalAlign=middle;whiteSpace=wrap;rounded=0;" vertex="1" parent="1">
          <mxGeometry x="500" y="334" width="150" height="20" as="geometry" />
        </mxCell>
        <mxCell id="DucRvNVN7_RUR9OL1qth-23" value="" style="endArrow=classic;html=1;rounded=0;dashed=1;exitX=1;exitY=0.75;exitDx=0;exitDy=0;" edge="1" parent="1" source="DucRvNVN7_RUR9OL1qth-2">
          <mxGeometry width="50" height="50" relative="1" as="geometry">
            <mxPoint x="600" y="464" as="sourcePoint" />
            <mxPoint x="674" y="543" as="targetPoint" />
          </mxGeometry>
        </mxCell>
        <mxCell id="DucRvNVN7_RUR9OL1qth-25" value="Notifies about payment status" style="text;html=1;strokeColor=none;fillColor=default;align=center;verticalAlign=middle;whiteSpace=wrap;rounded=0;" vertex="1" parent="1">
          <mxGeometry x="510" y="464" width="150" height="30" as="geometry" />
        </mxCell>
        <mxCell id="DucRvNVN7_RUR9OL1qth-26" value="" style="endArrow=none;html=1;rounded=0;dashed=1;startArrow=classic;startFill=1;endFill=0;exitX=0.25;exitY=1;exitDx=0;exitDy=0;" edge="1" parent="1" source="DucRvNVN7_RUR9OL1qth-2">
          <mxGeometry width="50" height="50" relative="1" as="geometry">
            <mxPoint x="290" y="624" as="sourcePoint" />
            <mxPoint x="670" y="554" as="targetPoint" />
            <Array as="points">
              <mxPoint x="440" y="554" />
            </Array>
          </mxGeometry>
        </mxCell>
        <mxCell id="DucRvNVN7_RUR9OL1qth-27" value="" style="endArrow=classic;html=1;rounded=0;dashed=1;startArrow=none;startFill=0;endFill=1;exitX=0.25;exitY=0;exitDx=0;exitDy=0;" edge="1" parent="1" source="DucRvNVN7_RUR9OL1qth-2">
          <mxGeometry width="50" height="50" relative="1" as="geometry">
            <mxPoint x="410" y="154" as="sourcePoint" />
            <mxPoint x="670" y="274" as="targetPoint" />
            <Array as="points">
              <mxPoint x="440" y="274" />
            </Array>
          </mxGeometry>
        </mxCell>
        <mxCell id="DucRvNVN7_RUR9OL1qth-28" value="Send payment link" style="text;html=1;strokeColor=none;fillColor=default;align=center;verticalAlign=middle;whiteSpace=wrap;rounded=0;" vertex="1" parent="1">
          <mxGeometry x="370" y="314" width="120" height="20" as="geometry" />
        </mxCell>
        <mxCell id="DucRvNVN7_RUR9OL1qth-30" value="Notifies about payment confirmation" style="text;html=1;strokeColor=none;fillColor=default;align=center;verticalAlign=middle;whiteSpace=wrap;rounded=0;" vertex="1" parent="1">
          <mxGeometry x="633" y="387" width="120" height="36" as="geometry" />
        </mxCell>
        <mxCell id="DucRvNVN7_RUR9OL1qth-32" value="Confirms payment" style="text;html=1;strokeColor=none;fillColor=default;align=center;verticalAlign=middle;whiteSpace=wrap;rounded=0;" vertex="1" parent="1">
          <mxGeometry x="370" y="484" width="120" height="20" as="geometry" />
        </mxCell>
        <mxCell id="DucRvNVN7_RUR9OL1qth-33" value="PayPal,&lt;br&gt;Other payment services..." style="rounded=0;whiteSpace=wrap;html=1;fillColor=#fff2cc;strokeColor=#d6b656;" vertex="1" parent="1">
          <mxGeometry x="80" y="375" width="120" height="60" as="geometry" />
        </mxCell>
        <mxCell id="DucRvNVN7_RUR9OL1qth-35" value="Create payment links and tags" style="text;html=1;strokeColor=none;fillColor=default;align=center;verticalAlign=middle;whiteSpace=wrap;rounded=0;" vertex="1" parent="1">
          <mxGeometry x="240" y="379" width="98" height="50" as="geometry" />
        </mxCell>
        <mxCell id="DucRvNVN7_RUR9OL1qth-36" value="internal systems" style="whiteSpace=wrap;html=1;fillColor=#dae8fc;strokeColor=#6c8ebf;" vertex="1" parent="1">
          <mxGeometry x="900" y="610" width="120" height="20" as="geometry" />
        </mxCell>
        <mxCell id="DucRvNVN7_RUR9OL1qth-37" value="external services" style="whiteSpace=wrap;html=1;fillColor=#fff2cc;strokeColor=#d6b656;" vertex="1" parent="1">
          <mxGeometry x="900" y="630" width="120" height="20" as="geometry" />
        </mxCell>
      </root>
    </mxGraphModel>
  </diagram>
</mxfile>
